<svg xmlns="http://www.w3.org/2000/svg" viewBox="0 0 120 80" fill="#fff">
  <!-- V-shaped outer shield -->
  <path d="M0 15 L15 0 L60 35 L105 0 L120 15 L60 75 Z" fill="#fff"/>
  <!-- Inner dark area -->
  <path d="M10 17 L20 7 L60 37 L100 7 L110 17 L60 68 Z" fill="#111"/>
  <!-- Horizontal bars - left side -->
  <rect x="22" y="18" width="30" height="4" fill="#fff" transform="rotate(33 37 20)"/>
  <rect x="18" y="28" width="32" height="4" fill="#fff" transform="rotate(33 34 30)"/>
  <rect x="14" y="38" width="34" height="3.5" fill="#fff" transform="rotate(33 31 40)"/>
  <rect x="18" y="46" width="26" height="3" fill="#fff" transform="rotate(33 31 48)"/>
  <!-- Horizontal bars - right side -->
  <rect x="68" y="18" width="30" height="4" fill="#fff" transform="rotate(-33 83 20)"/>
  <rect x="70" y="28" width="32" height="4" fill="#fff" transform="rotate(-33 86 30)"/>
  <rect x="72" y="38" width="34" height="3.5" fill="#fff" transform="rotate(-33 89 40)"/>
  <rect x="76" y="46" width="26" height="3" fill="#fff" transform="rotate(-33 89 48)"/>
  <!-- Center vertical divider -->
  <rect x="58" y="22" width="4" height="38" fill="#111"/>
</svg>
